<?xml version="1.0" encoding="UTF-8"?>
<svg xmlns="http://www.w3.org/2000/svg" width="96px" height="96px" viewBox="0 0 496 496" style="object-fit: cover; background-position: center; background-color: #18230F; border-radius: 50%;" fill="#18230F"><rect width="100%" height="100%" fill="#18230F" rx="50%"/><rect width="100%" height="100%" fill="#18230F" rx="50%"/><rect width="100%" height="100%" fill="#18230F" rx="50%"/><rect width="100%" height="100%" fill="#18230F" rx="50%"/>
                              {/* T */}
                              <path fill="#B0926A" opacity="1.000000" stroke="none" d=" M373.061676,212.043961   C373.069031,220.530777 372.865784,228.531906 373.156067,236.515106   C373.348389,241.803391 370.066711,241.353348 366.621979,241.369583   C363.283478,241.385300 360.246368,241.617874 360.610138,236.651840   C361.183167,228.828522 360.038239,221.031937 359.736328,213.219818   C359.333252,202.789505 357.558716,200.501190 347.539185,198.348953   C346.727203,198.174545 345.881195,198.129608 345.415344,197.285995   C345.255646,195.723099 346.506744,195.748886 347.397217,195.766068   C362.852356,196.064484 378.371460,194.424530 393.749634,196.761414   C400.628479,197.806732 407.478821,199.400055 413.133636,204.049850   C422.313049,211.597870 423.479584,226.840973 415.876099,235.944550   C410.388855,242.514389 403.493713,241.660583 395.325714,240.902557   C402.696289,235.411896 406.087219,228.834686 405.722900,220.397751   C405.475464,214.666962 403.235229,210.059952 398.671173,206.726974   C392.384613,202.136093 384.968872,200.986267 377.458923,200.397079   C374.661621,200.177643 373.078705,201.591095 373.108948,204.557190   C373.132721,206.887939 373.079712,209.219467 373.061676,212.043961  z"/>
                              <path fill="#B0926A" opacity="1.000000" stroke="none" d=" M97.722610,304.858795   C104.144661,303.325256 106.106239,298.786438 106.644196,293.306122   C107.129448,288.362732 107.409561,283.399170 107.789360,278.321320   C108.569397,278.087555 109.170471,277.780884 109.788795,277.740967   C120.151581,277.070892 120.160339,277.078156 120.305893,287.555695   C120.338257,289.884949 120.551582,292.159058 121.052658,294.461639   C122.722099,302.133118 124.323708,303.714508 131.906570,305.328522   C133.928772,305.758942 136.278839,304.895935 138.045731,306.659271   C135.538742,308.703339 95.313736,309.266754 89.133514,307.273590   C91.461494,304.496002 94.914055,306.376312 97.722610,304.858795  z"/>
                              {/* W */}
                              <path fill="#B0926A" opacity="1.000000" stroke="none" d=" M243.769669,227.126984   C241.650360,221.461670 239.627319,216.177460 237.626572,210.884842   C234.872238,203.598755 230.196854,198.733582 221.937317,198.314941   C220.966614,198.265747 219.905457,198.286850 219.094421,196.402832   C233.600464,196.402832 247.795883,196.402832 262.208588,196.402832   C261.425507,199.155136 259.321930,198.321472 257.925110,198.681061   C251.958298,200.217117 250.510361,202.381805 251.904205,208.349152   C254.026779,217.436295 257.140076,226.221085 260.075348,235.061249   C260.639343,236.759811 261.677063,238.403656 260.995117,241.009750   C255.649765,241.616074 250.135757,241.380814 243.965363,241.108444   C244.520752,236.355927 246.932663,231.778671 243.769669,227.126984  z"/>
                              <path fill="#B0926A" opacity="1.000000" stroke="none" d=" M191.995087,195.661530   C197.348358,195.661453 202.203079,195.661453 207.370712,195.661453   C206.506821,199.096878 204.404877,198.291473 203.005920,198.632507   C196.737610,200.160477 195.615707,201.896820 197.000946,208.136002   C198.881119,216.604507 202.063522,224.664322 204.647842,232.911896   C205.431763,235.413635 206.809906,237.794220 206.491165,240.746719   C202.909164,241.869034 199.255814,241.252792 195.653488,241.221298   C193.229797,241.200134 193.011597,239.070602 192.434616,237.366547   C190.193512,230.747650 188.061157,224.089218 185.672363,217.524078   C184.368423,213.940414 182.818588,210.415985 181.044922,207.040726   C178.528168,202.251343 174.973923,198.797836 169.021042,198.682373   C167.500504,198.652878 165.620941,198.801773 163.800446,196.421860   C173.361725,194.875977 182.473969,196.040710 191.995087,195.661530  z"/>
                              <path fill="#B0926A" opacity="1.000000" stroke="none" d=" M289.074524,288.915894   C287.227234,294.677032 285.288940,300.002747 283.834930,305.457520   C282.863373,309.102417 280.528229,309.507874 277.451385,309.367126   C274.347137,309.225159 271.212372,309.929840 269.902557,305.612152   C267.165314,296.589020 264.023651,287.688568 260.986176,278.551361   C265.117096,277.074432 268.759521,277.742218 272.342194,277.800323   C274.432953,277.834229 274.891724,279.586121 275.441620,281.193115   C276.938995,285.569122 278.481567,289.929657 280.264771,295.036835   C283.320007,290.438751 284.063843,285.817505 285.367035,281.479218   C286.441742,277.901581 288.204803,276.889130 291.617584,278.394562   C291.833862,282.066589 289.925018,285.165009 289.074524,288.915894  z"/>
                              <path fill="#B0926A" opacity="1.000000" stroke="none" d=" M227.865875,289.792847   C228.827423,286.748322 229.783127,284.085724 230.516235,281.363190   C231.382462,278.146240 233.156097,276.935059 236.788788,278.363800   C236.091064,283.571075 234.026657,288.419952 232.490463,293.405304   C231.561493,296.420044 230.690567,299.452606 229.767670,302.469238   C227.587738,309.594818 226.486465,310.267853 219.155289,309.324036   C217.736740,309.141449 216.644073,308.774414 215.916000,307.434052   C215.020081,305.784637 207.118530,280.654510 206.930649,278.324188   C210.241974,277.017120 213.726303,277.806213 217.131454,277.767334   C219.465897,277.740662 219.976822,279.667572 220.577744,281.424561   C222.071854,285.793213 223.591614,290.153137 225.172104,294.721832   C227.065353,293.374542 227.218948,291.658295 227.865875,289.792847  z"/>
                              <path fill="#B0926A" opacity="1.000000" stroke="none" d=" M302.660339,199.263351   C300.173676,198.369843 297.636963,198.945816 295.793823,196.414825   C308.628632,195.623077 321.450439,195.660797 334.325806,196.356018   C332.710327,198.939774 330.223206,198.829544 328.144379,199.056702   C322.759857,199.645065 319.352844,202.664017 316.842010,207.085663   C311.450531,216.580200 308.678619,227.081421 305.348358,237.357681   C304.290070,240.623138 302.693207,242.223816 299.149475,240.825165   C297.986450,238.520523 299.461700,236.577988 300.073975,234.628845   C302.914215,225.586639 305.710938,216.540024 307.277405,207.168198   C307.892944,203.485657 307.025604,200.553650 302.660339,199.263351  z"/>
                              {/* B */}
                              <path fill="#B0926A" opacity="1.000000" stroke="none" d=" M363.001160,308.346863   C356.812042,308.345734 351.122528,308.345734 345.196777,308.345734   C345.773193,305.354187 347.366180,305.838745 348.540192,305.624359   C356.723633,304.130005 359.213348,301.277527 359.704132,292.922546   C359.918671,289.270416 360.495819,285.624664 360.483673,281.977448   C360.463531,275.923248 364.893829,278.073761 367.943512,277.680573   C371.421600,277.232147 373.263397,278.519897 373.149261,282.333679   C373.034851,286.155518 373.118256,289.999359 373.393402,293.813477   C373.968994,301.792114 377.931335,304.821533 385.630066,303.363190   C391.192810,302.309448 396.722534,301.134552 401.722595,298.292664   C408.245026,294.585571 411.919373,288.756958 413.294647,281.614014   C413.913544,278.399506 415.325836,277.497284 418.275879,277.640472   C421.401550,277.792175 424.540283,277.674561 427.559204,277.674561   C429.550598,286.479126 424.214355,296.558197 415.279083,301.481171   C407.249390,305.905304 398.526611,307.929962 389.468109,308.243134   C380.821442,308.542114 372.157196,308.333466 363.001160,308.346863  z"/>
                              <path fill="#B0926A" opacity="1.000000" stroke="none" d=" M75.386360,207.369751   C71.235420,210.381546 70.898865,215.376678 68.705063,219.453003   C65.933975,217.248520 66.678886,214.904694 66.757942,212.912704   C66.973999,207.468674 64.429291,200.572128 67.842567,196.967834   C71.309967,193.306366 78.270317,195.761414 83.679916,195.724075   C105.829269,195.571167 127.980377,195.628723 150.130692,195.675369   C161.975998,195.700333 160.310150,194.513000 160.243652,205.657028   C160.217667,210.013519 161.069901,214.496704 159.506790,218.727844   C157.237320,218.842926 156.999527,217.375320 156.837494,216.118698   C156.146942,210.763504 152.760284,207.394363 148.325867,205.124939   C140.599319,201.170700 132.217545,200.081238 123.618584,200.211990   C120.173470,200.264374 120.126411,202.568085 120.124969,205.017059   C120.118965,215.175995 119.882095,225.341949 120.195427,235.490952   C120.353958,240.625702 118.104378,241.505112 113.621338,241.478561   C109.281487,241.452896 107.359276,240.500809 107.527359,235.661163   C107.873993,225.680664 107.503487,215.677322 107.682663,205.687943   C107.754578,201.679108 106.528503,199.968796 102.259293,200.138474   C92.838654,200.512924 83.662582,201.499466 75.386360,207.369751  z"/>
                              {/* text */}
                              <path fill="#E1C78F" opacity="1.000000" stroke="none" d=" M187.227142,261.132050   C186.414551,262.894104 186.711044,264.856842 184.864243,265.686646   C182.729782,265.043365 183.273819,262.607605 182.041916,261.345734   C179.967133,262.034729 180.810120,264.864502 178.172897,265.542603   C176.326248,262.182281 174.681076,258.606659 174.099670,254.186417   C178.300278,254.407684 176.872162,257.992798 178.984802,259.273193   C179.646317,257.980347 179.619873,255.814651 181.533875,254.866714   C183.759720,255.310898 183.298676,257.792877 184.602417,259.021088   C185.897949,257.433411 185.699478,254.523285 188.774323,254.019424   C189.562027,256.744843 187.565872,258.582520 187.227142,261.132050  z"/>
                              <path fill="#E1C78F" opacity="1.000000" stroke="none" d=" M341.068115,265.232941   C338.930267,266.654694 337.018280,266.508881 334.779022,265.762909   C334.779022,262.089325 334.779022,258.370514 334.779022,254.653122   C340.940979,253.771759 342.852753,256.798309 341.068115,265.232941  z"/>
                              <path fill="#E1C78F" opacity="1.000000" stroke="none" d=" M276.674988,265.214600   C276.813751,262.115051 276.241211,259.269379 277.251495,256.507233   C280.337463,256.115967 281.099640,259.506165 283.568176,260.152161   C285.810120,259.620117 283.507812,256.446686 286.351807,255.820435   C288.290710,258.883636 287.146973,262.166443 286.913025,265.501770   C283.411041,266.313477 282.596191,261.919678 279.793488,262.119446   C277.137909,261.945404 280.916992,266.995331 276.674988,265.214600  z"/>
                              <path fill="#E1C78F" opacity="1.000000" stroke="none" d=" M357.161713,266.660583   C353.076691,265.842072 351.303619,263.553284 352.131683,259.844696   C352.923004,256.300507 355.625946,255.428970 358.975372,255.709488   C362.030823,255.965378 363.358734,257.743317 363.526611,260.549622   C363.776428,264.726135 361.476379,266.541168 357.161713,266.660583  M355.316711,263.334137   C356.848572,264.905151 358.476044,265.131134 359.989563,263.415771   C361.068695,262.192688 361.160980,260.687225 360.312958,259.278168   C359.578125,258.057220 358.435760,257.209961 357.010284,257.951996   C355.105896,258.943329 353.911011,260.436768 355.316711,263.334137  z"/>
                              <path fill="#E1C78F" opacity="1.000000" stroke="none" d=" M226.339584,256.198517   C229.218643,258.404236 230.209000,260.965881 228.535446,263.818024   C226.254028,267.706085 222.547638,266.177124 218.904709,265.985382   C218.904709,262.725037 218.904709,259.645782 218.904709,256.382690   C221.098785,255.040222 223.545517,255.719772 226.339584,256.198517  M224.078323,264.370544   C226.642471,263.033844 227.210571,261.124115 225.496521,258.772827   C224.643616,257.602783 223.100571,256.888245 222.276718,258.405029   C221.147888,260.483276 220.043610,263.020111 224.078323,264.370544  z"/>
                              <path fill="#E1C78F" opacity="1.000000" stroke="none" d=" M308.484344,261.239197   C309.628448,265.458221 306.993256,266.277863 303.939850,266.550018   C300.618134,266.846069 298.459595,265.237213 297.941467,261.982208   C297.476654,259.062073 298.571014,256.481110 301.665863,255.929581   C304.008728,255.512070 307.151947,254.647263 308.405670,258.369049   C307.712402,258.678833 307.534851,258.835754 307.416992,258.799377   C305.147766,258.099030 302.778412,256.519562 301.043182,259.701141   C300.076477,261.473572 300.470306,263.011292 302.080811,264.004120   C305.510010,266.118164 305.865753,262.114838 307.703888,261.033813   C307.822662,260.963959 308.028198,261.041656 308.484344,261.239197  z"/>
                              <path fill="#E1C78F" opacity="1.000000" stroke="none" d=" M249.494568,257.343262   C252.151337,265.015137 249.479492,267.417786 240.585831,265.668365   C240.585831,262.630402 240.585831,259.549835 240.585831,256.235565   C243.672592,255.552856 246.535843,254.993011 249.494568,257.343262  M243.960678,258.490387   C242.131241,260.356201 241.367447,262.607147 243.782974,264.203369   C245.566010,265.381622 247.388306,263.781738 247.996094,262.058105   C249.006088,259.193939 247.119019,258.328979 243.960678,258.490387  z"/>
                              <path fill="#E1C78F" opacity="1.000000" stroke="none" d=" M149.837479,264.310425   C148.093384,267.551727 145.591461,266.060211 143.013245,266.041351   C143.013245,262.734711 143.013245,259.653961 143.013245,256.316406   C144.915375,255.277496 146.894028,255.502548 148.887421,256.128876   C149.239929,258.776978 146.053848,256.852844 146.002945,259.156036   C148.124252,259.838226 149.577469,261.423920 149.837479,264.310425  z"/>
                              <path fill="#E1C78F" opacity="1.000000" stroke="none" d=" M123.757416,256.276917   C123.745384,260.301453 125.474350,261.793121 127.376312,259.440643   C127.863754,258.837708 127.945862,257.909393 128.223816,257.134033   C128.464218,256.463440 128.857193,255.985779 130.177963,256.189240   C130.718948,259.396210 130.543350,262.710999 129.911743,266.469543   C125.826149,261.050934 125.588921,261.049713 122.685371,265.982758   C120.776741,262.404419 121.207222,257.459778 123.757416,256.276917  z"/>
                              <path fill="#E1C78F" opacity="1.000000" stroke="none" d=" M201.527649,255.927002   C203.359924,255.720871 204.852066,255.388474 206.369690,256.260529   C206.578735,258.293915 204.373917,257.390442 203.499374,258.702759   C204.835144,260.108887 208.180618,261.748657 203.969498,263.530884   C204.500626,265.083038 206.550522,263.595001 206.682281,265.584290   C204.736404,266.835480 202.719116,266.213074 200.316330,265.985321   C200.821945,262.441162 200.054840,259.204254 201.527649,255.927002  z"/>
                              <path fill="#E1C78F" opacity="1.000000" stroke="none" d=" M110.077332,255.555115   C104.504181,257.771149 108.326912,262.642242 106.674057,265.827209   C103.847305,266.621552 104.224609,264.813171 104.442535,263.065338   C104.850533,259.793213 105.363220,256.454254 100.726860,255.045609   C104.212036,253.880676 107.278450,252.392593 110.077332,255.555115  z"/>
                              <path fill="#E1C78F" opacity="1.000000" stroke="none" d=" M381.277344,256.108398   C382.729767,255.867844 383.806763,256.251404 382.981873,257.545532   C381.304993,260.176422 380.185883,263.023224 378.859955,266.203064   C377.734497,262.679596 375.789276,259.719757 374.412811,256.628448   C376.758453,254.176208 378.969543,260.927887 381.277344,256.108398  z"/>
                              <path fill="#E1C78F" opacity="1.000000" stroke="none" d=" M398.032898,259.273102   C399.592133,261.180481 401.333344,262.981598 399.803040,265.216553   C398.481201,267.147034 396.445038,266.955292 394.586823,265.629761   C394.347229,263.393097 396.435791,264.909973 397.223419,263.610352   C396.909332,261.415833 392.816895,259.600677 395.306274,256.599213   C396.447418,255.223358 398.216644,255.304199 399.611816,256.419983   C400.199860,258.218018 397.528961,257.507874 398.032898,259.273102  z"/>
                              <path fill="#E1C78F" opacity="1.000000" stroke="none" d=" M262.026428,264.387787   C262.531403,261.320374 260.815704,258.165833 263.723450,254.859222   C264.959808,258.891083 264.418671,261.979401 264.220825,264.923920   C264.110687,266.563263 262.740234,266.219025 262.026428,264.387787  z"/>
</svg>